<svg xmlns="http://www.w3.org/2000/svg" width="16" height="17" viewBox="0 0 16 17"><g><g><g><g><g><path fill="#fff" d="M1.098 3.28c.15 0 .3-.05.425-.154l1.803-1.503a.664.664 0 0 0-.85-1.02L.671 2.106a.664.664 0 0 0 .426 1.174z"/></g><g><path fill="#fff" d="M12.346 1.623l1.803 1.503a.661.661 0 0 0 .936-.084.664.664 0 0 0-.085-.936L13.197.603a.664.664 0 1 0-.85 1.02z"/></g><g><path fill="#fff" d="M13.377 3.623a7.777 7.777 0 0 0-4.91-2.27V.664a.664.664 0 1 0-1.328 0v.695c-1.83.16-3.53.95-4.844 2.264A7.784 7.784 0 0 0 0 9.164a7.785 7.785 0 0 0 2.72 5.935l-.535.897a.664.664 0 1 0 1.141.68l.472-.793A7.787 7.787 0 0 0 7.836 17a7.77 7.77 0 0 0 4.037-1.118l.472.794a.664.664 0 1 0 1.142-.68l-.83-1.394a.664.664 0 0 0-.965-.195 6.455 6.455 0 0 1-3.856 1.265 6.515 6.515 0 0 1-6.508-6.508 6.515 6.515 0 0 1 6.508-6.508 6.515 6.515 0 0 1 6.508 6.508c0 1.096-.278 2.18-.803 3.133a.664.664 0 1 0 1.164.64 7.845 7.845 0 0 0 .967-3.773c0-2.093-.815-4.06-2.295-5.54z"/></g><g><path fill="#fff" d="M7.803 4.283a.664.664 0 0 0-.664.664v4.217c0 .176.07.345.194.47l1.878 1.878a.662.662 0 0 0 .94 0c.259-.26.259-.68 0-.94L8.467 8.89V4.947a.664.664 0 0 0-.664-.664z"/></g></g></g></g></g></svg>