<svg xmlns="http://www.w3.org/2000/svg" width="16" height="16" viewBox="0 0 16 16"><g><g><g><path fill="#fff" d="M7.596 11.759l-3.232 2.154v-1.55a.728.728 0 0 0-.728-.727 2.184 2.184 0 0 1-2.181-2.181V3.636c0-1.203.978-2.181 2.181-2.181h8.728c1.203 0 2.181.978 2.181 2.181v5.819a2.184 2.184 0 0 1-2.181 2.181H8a.692.692 0 0 0-.404.123zM12.364 0H3.636A3.64 3.64 0 0 0 0 3.636v5.819a3.643 3.643 0 0 0 2.91 3.562v2.256a.728.728 0 0 0 1.13.605l4.18-2.787h4.144A3.64 3.64 0 0 0 16 9.455V3.636A3.64 3.64 0 0 0 12.364 0z"/></g><g><path fill="#fff" d="M12.364 4.364H3.636a.728.728 0 0 0 0 1.454h8.728a.728.728 0 0 0 0-1.454z"/></g><g><path fill="#fff" d="M10.91 7.273H5.09a.728.728 0 0 0 0 1.454h5.82a.728.728 0 0 0 0-1.454z"/></g></g></g></svg>