<svg xmlns="http://www.w3.org/2000/svg" width="50" height="50" viewBox="0 0 50 50" fill="#fff">
  <g id="Group_858" data-name="Group 858" transform="translate(-338 -455)">
    <path fill="#fff" id="Path_261" data-name="Path 261" d="M0,2.252V17.969a2.266,2.266,0,0,0,3.417,2.05l13.67-7.972a2.165,2.165,0,0,0,0-3.872L3.417.2A2.427,2.427,0,0,0,0,2.252Z" transform="translate(356.568 469.854)"/>
    <path fill="#fff" id="Subtraction_7" data-name="Subtraction 7" d="M25,50A25,25,0,0,1,7.322,7.322,25,25,0,0,1,42.678,42.678,24.837,24.837,0,0,1,25,50ZM25,2A23,23,0,0,0,8.736,41.264,23,23,0,1,0,41.264,8.736,22.849,22.849,0,0,0,25,2Z" transform="translate(338 455)"/>
  </g>
</svg>
