<?xml version="1.0"?>
<svg xmlns="http://www.w3.org/2000/svg" xmlns:xlink="http://www.w3.org/1999/xlink" xmlns:svgjs="http://svgjs.com/svgjs" version="1.1" width="512" height="512" x="0" y="0" viewBox="0 0 512 512" style="enable-background:new 0 0 512 512" xml:space="preserve" class=""><g><g xmlns="http://www.w3.org/2000/svg"><path d="m327.86 446.291-49.088 36.939c-2.501 1.88-4.807.762-5.681.194-.872-.567-2.825-2.213-2.123-5.257l11.97-51.98c1.812-7.87-.033-16.009-5.062-22.329-5.03-6.32-12.548-9.944-20.626-9.944h-186.32c-30.84 0-55.93-25.09-55.93-55.93v-254.32c0-16.534 7.261-32.131 19.921-42.793 3.169-2.668 3.574-7.4.905-10.568-2.667-3.168-7.399-3.574-10.567-.905-16.053 13.518-25.259 33.297-25.259 54.266v254.32c0 39.111 31.819 70.93 70.93 70.93h186.32c3.481 0 6.722 1.562 8.89 4.285 2.167 2.723 2.963 6.23 2.182 9.622l-11.97 51.978c-1.904 8.26 1.458 16.583 8.566 21.202 3.357 2.182 7.13 3.266 10.891 3.266 4.207 0 8.401-1.357 11.981-4.05l49.09-36.94c3.31-2.49 3.974-7.193 1.483-10.502-2.491-3.31-7.193-3.975-10.503-1.484z" fill="#b7b7b7" data-original="#000000" class=""/><path d="m441.07 12.734h-370.14c-4.158 0-8.354.368-12.472 1.094-4.079.719-6.804 4.609-6.084 8.688.718 4.079 4.611 6.804 8.688 6.084 3.261-.574 6.58-.866 9.868-.866h370.14c30.84 0 55.93 25.09 55.93 55.93v254.31c0 30.845-25.095 55.94-55.94 55.94h-22.73c-13.442 0-26.771 4.456-37.531 12.548l-25.31 19.05c-3.309 2.491-3.973 7.193-1.481 10.502 1.474 1.958 3.722 2.99 5.998 2.99 1.57 0 3.153-.491 4.505-1.508l25.307-19.048c8.175-6.148 18.301-9.534 28.513-9.534h22.729c39.116 0 70.94-31.823 70.94-70.94v-254.31c0-39.111-31.819-70.93-70.93-70.93z" fill="#b7b7b7" data-original="#000000" class=""/><path d="m330.058 108.375c-3.133.977-5.268 3.878-5.268 7.16v72.019c0 4.142 3.357 7.5 7.5 7.5s7.5-3.358 7.5-7.5v-47.96l35.026 50.72c2.265 3.27 6.019 4.668 9.561 3.56 3.63-1.134 5.975-4.57 5.975-8.825l-.675-69.722c-.04-4.117-3.39-7.427-7.498-7.427-.025 0-.05 0-.074 0-4.143.04-7.468 3.43-7.428 7.572l.475 48.929-36.689-53.129c-1.866-2.699-5.267-3.872-8.405-2.897z" fill="#b7b7b7" data-original="#000000" class=""/><path d="m214.287 188.323 8.279-45.872 13.605 46.115c.026.089.054.177.083.265 1.252 3.728 4.726 6.224 8.654 6.224h.049c3.948-.021 7.419-2.558 8.637-6.314.027-.085.054-.17.078-.256l13.137-46.082 8.791 45.997c.777 4.069 4.714 6.734 8.774 5.959 4.068-.778 6.736-4.706 5.958-8.775l-13.45-70.378c-.829-4.06-4.297-7.058-8.435-7.29-4.122-.234-7.919 2.358-9.196 6.3-.027.085-.054.171-.078.257l-14.36 50.376-14.886-50.454c-.026-.09-.055-.179-.085-.268-1.32-3.929-5.136-6.48-9.267-6.2-4.135.278-7.569 3.315-8.368 7.469l-12.683 70.264c-.735 4.076 1.973 7.977 6.049 8.713 4.073.735 7.979-1.973 8.714-6.05z" fill="#b7b7b7" data-original="#000000" class=""/><path d="m315.185 187.554v-72.154c0-4.142-3.357-7.5-7.5-7.5s-7.5 3.358-7.5 7.5v72.154c0 4.142 3.357 7.5 7.5 7.5s7.5-3.358 7.5-7.5z" fill="#b7b7b7" data-original="#000000" class=""/><path d="m438.535 122.9c5.728 0 11.251 1.686 15.973 4.876 3.433 2.319 8.095 1.416 10.413-2.016s1.416-8.094-2.017-10.413c-7.21-4.872-15.637-7.447-24.369-7.447-24.028 0-43.577 19.549-43.577 43.577s19.549 43.577 43.577 43.577c22.753 0 38.644-17.919 38.644-43.577 0-4.142-3.357-7.5-7.5-7.5h-21.585c-4.143 0-7.5 3.358-7.5 7.5s3.357 7.5 7.5 7.5h13.404c-2.024 10.894-8.77 21.077-22.963 21.077-15.758 0-28.577-12.82-28.577-28.577s12.819-28.577 28.577-28.577z" fill="#b7b7b7" data-original="#000000" class=""/><path d="m78.398 122.9c5.728 0 11.251 1.686 15.973 4.876 3.433 2.319 8.095 1.416 10.413-2.016s1.416-8.094-2.017-10.413c-7.21-4.872-15.637-7.447-24.369-7.447-24.028 0-43.577 19.549-43.577 43.577s19.549 43.577 43.577 43.577c9.56 0 18.131-3.134 24.789-9.063 1.303-1.161 2.542-2.439 3.684-3.799 2.663-3.172 2.25-7.903-.922-10.566-3.174-2.663-7.901-2.25-10.566.923-.678.807-1.409 1.562-2.173 2.242-3.922 3.493-8.905 5.264-14.812 5.264-15.758 0-28.577-12.82-28.577-28.577s12.82-28.578 28.577-28.578z" fill="#b7b7b7" data-original="#000000" class=""/><path d="m152.567 107.9c-24.028 0-43.577 19.549-43.577 43.577s19.549 43.577 43.577 43.577 43.577-19.549 43.577-43.577-19.548-43.577-43.577-43.577zm0 72.154c-15.758 0-28.577-12.82-28.577-28.577s12.82-28.577 28.577-28.577 28.577 12.82 28.577 28.577-12.819 28.577-28.577 28.577z" fill="#b7b7b7" data-original="#000000" class=""/><path d="m363.576 308.526v-47.96l35.026 50.72c2.265 3.27 6.019 4.668 9.561 3.56 3.63-1.134 5.975-4.57 5.975-8.825l-.675-69.722c-.04-4.117-3.39-7.427-7.498-7.427-.025 0-.05 0-.074 0-4.143.04-7.468 3.43-7.428 7.572l.475 48.929-36.689-53.129c-1.865-2.701-5.267-3.874-8.404-2.898-3.133.977-5.268 3.878-5.268 7.16v72.019c0 4.142 3.357 7.5 7.5 7.5s7.499-3.357 7.499-7.499z" fill="#b7b7b7" data-original="#000000" class=""/><path d="m162.057 272.449c0 24.028 19.549 43.577 43.577 43.577s43.577-19.549 43.577-43.577-19.549-43.577-43.577-43.577-43.577 19.549-43.577 43.577zm43.577-28.577c15.758 0 28.577 12.82 28.577 28.577s-12.819 28.577-28.577 28.577-28.577-12.82-28.577-28.577 12.819-28.577 28.577-28.577z" fill="#b7b7b7" data-original="#000000" class=""/><path d="m298.003 228.872c-24.028 0-43.577 19.549-43.577 43.577s19.549 43.577 43.577 43.577 43.577-19.549 43.577-43.577-19.549-43.577-43.577-43.577zm0 72.154c-15.758 0-28.577-12.82-28.577-28.577s12.819-28.577 28.577-28.577 28.577 12.82 28.577 28.577-12.819 28.577-28.577 28.577z" fill="#b7b7b7" data-original="#000000" class=""/><path d="m102.356 247.453c-1.854 7.109-.061 14.354 4.795 19.38 5.615 5.81 12.553 8.193 20.587 10.953 2.05.704 4.169 1.432 6.438 2.269 7.444 2.746 11.246 6.943 10.43 11.515-.83 4.648-6.331 9.456-14.1 9.456-7.593 0-14.915-3.077-19.586-8.232-2.782-3.071-7.526-3.302-10.594-.521-3.069 2.781-3.303 7.524-.521 10.594 7.467 8.24 18.944 13.16 30.701 13.16 14.235 0 26.646-9.38 28.866-21.82 1.688-9.455-2.681-21.835-20.005-28.225-2.428-.896-4.728-1.685-6.757-2.382-6.963-2.392-11.563-3.972-14.673-7.189-1.717-1.777-1.318-4.209-1.067-5.173.791-3.036 3.375-5.485 6.911-6.55 10.994-3.312 21.021 4.679 21.258 4.871 3.169 2.636 7.879 2.219 10.535-.942 2.665-3.171 2.256-7.902-.915-10.567-.655-.551-16.269-13.43-35.204-7.724-8.585 2.585-14.977 8.988-17.099 17.127z" fill="#b7b7b7" data-original="#000000" class=""/></g></g></svg>
