<svg xmlns="http://www.w3.org/2000/svg" width="20.241" height="20.999" viewBox="0 0 20.241 20.999">
  <g id="Group_1160" data-name="Group 1160" transform="translate(-5 -3.986)">
    <g id="Group_1158" data-name="Group 1158">
      <g id="Group_1159" data-name="Group 1159">
        <path id="Path_1318" data-name="Path 1318" d="M23.046,12.046h-3.8V6.064A2.114,2.114,0,0,0,17.1,3.987H7.194A2.141,2.141,0,0,0,5,6.064V12.4a2.141,2.141,0,0,0,2.194,2.077h.055v1.993a.452.452,0,0,0,.734.354l2.944-2.346H11v5.957a2.139,2.139,0,0,0,2.17,2.1h6.146l2.945,2.347a.452.452,0,0,0,.734-.354V22.541h.055a2.141,2.141,0,0,0,2.194-2.077V14.123A2.141,2.141,0,0,0,23.046,12.046Zm-12.2,1.687a.518.518,0,0,0-.319.111L8,15.858V14.231a.5.5,0,0,0-.5-.5h-.3A1.391,1.391,0,0,1,5.75,12.4V6.064A1.391,1.391,0,0,1,7.194,4.737H17.1a1.364,1.364,0,0,1,1.395,1.328V12.4A1.364,1.364,0,0,1,17.1,13.733Zm13.647,6.731a1.391,1.391,0,0,1-1.444,1.328h-.3a.5.5,0,0,0-.5.5v1.627L19.714,21.9a.514.514,0,0,0-.318-.111H13.167a1.389,1.389,0,0,1-1.42-1.352V14.482H17.1A2.13,2.13,0,0,0,19.2,12.8h3.842a1.391,1.391,0,0,1,1.444,1.328Z" fill="#fff"/>
      </g>
    </g>
    <path id="Path_1319" data-name="Path 1319" d="M21.56,15.2a2.631,2.631,0,1,0-.572.485l.212.241a.375.375,0,1,0,.562-.5Zm-1.963.139a1.874,1.874,0,1,1,1.874-1.874,1.855,1.855,0,0,1-.416,1.163l-.813-.921a.375.375,0,1,0-.562.5l.8.906A1.85,1.85,0,0,1,19.6,15.343Z" transform="translate(-7.475 -4.279)" fill="#fff"/>
    <path id="Path_1320" data-name="Path 1320" d="M38.469,37.229,36.6,32.771h0v0a.375.375,0,0,0-.691,0v0h0l-1.873,4.458a.375.375,0,1,0,.691.29l.521-1.239h2.016l.521,1.239a.375.375,0,1,0,.691-.29Zm-2.913-1.7.693-1.65.693,1.65Z" transform="translate(-18.13 -17.85)" fill="#fff"/>
  </g>
</svg>
