<svg xmlns="http://www.w3.org/2000/svg" width="41" height="40" viewBox="0 0 41 40"><g><g><path fill="#fff" d="M39.104 22.27c-.401-.101-.803 0-1.154.25a14.723 14.723 0 0 1-4.466 2.61c-1.556.602-3.262.903-5.068.903a14.757 14.757 0 0 1-10.438-4.316 14.757 14.757 0 0 1-4.316-10.438c0-1.706.301-3.362.803-4.867.552-1.606 1.355-3.062 2.409-4.316.451-.552.351-1.355-.201-1.807-.351-.25-.753-.35-1.154-.25-4.266 1.154-7.98 3.713-10.639 7.125A19.795 19.795 0 0 0 .815 19.208a19.8 19.8 0 0 0 5.822 14.051c3.613 3.613 8.53 5.821 14.05 5.821 4.617 0 8.883-1.606 12.295-4.265a19.786 19.786 0 0 0 7.026-10.99c.2-.703-.201-1.405-.904-1.556z"/></g></g></svg>