<svg xmlns="http://www.w3.org/2000/svg" width="32.824" height="32.824" viewBox="47 898.176 32.824 32.824"><g data-name="google"><path d="m78.584 911.735-13.388-.001a1.07 1.07 0 0 0-1.07 1.07v4.277a1.07 1.07 0 0 0 1.07 1.07h7.54a10.065 10.065 0 0 1-4.333 5.078l3.215 5.565a16.093 16.093 0 0 0 8.206-14.074 13.886 13.886 0 0 0-.013-.61c-.024-.54-.08-.996-.172-1.492a1.075 1.075 0 0 0-1.055-.883Z" fill="#167ee6" fill-rule="evenodd" data-name="Path 1409"/><path d="m54.771 919.579-5.565 3.207c2.832 4.909 8.137 8.214 14.206 8.214a16.378 16.378 0 0 0 7.398-1.762 16.479 16.479 0 0 0 .808-.436v-.008l-3.215-5.565a9.923 9.923 0 0 1-4.567 1.34 9.96 9.96 0 0 1-.424.009 9.938 9.938 0 0 1-7.08-2.96 10.093 10.093 0 0 1-1.56-2.04Z" fill="#12b347" fill-rule="evenodd" data-name="Path 1410"/><path d="M71.618 928.802v-.008l-3.215-5.565a9.924 9.924 0 0 1-4.567 1.34 9.959 9.959 0 0 1-.424.009V931a16.377 16.377 0 0 0 7.398-1.762 16.474 16.474 0 0 0 .808-.436Z" fill="#0f993e" fill-rule="evenodd" data-name="Path 1411"/><path d="m54.771 909.597-5.565-3.207a16.226 16.226 0 0 0-2.191 7.502 16.597 16.597 0 0 0-.015.696 16.253 16.253 0 0 0 1.593 7.04 16.27 16.27 0 0 0 .613 1.158l5.565-3.207a9.924 9.924 0 0 1-1.34-4.567 9.959 9.959 0 0 1-.009-.424 9.885 9.885 0 0 1 .976-4.285 10.155 10.155 0 0 1 .373-.706Z" fill="#ffd500" fill-rule="evenodd" data-name="Path 1412"/><path d="m71.19 906.81 3.03-3.03a1.078 1.078 0 0 0-.062-1.577 16.37 16.37 0 0 0-10.15-4.016 16.488 16.488 0 0 0-.596-.01c-6.069 0-11.374 3.305-14.206 8.213l5.565 3.207c1.73-2.983 4.951-4.999 8.64-4.999a9.93 9.93 0 0 1 5.144 1.429 10.04 10.04 0 0 1 1.2.848 1.076 1.076 0 0 0 .527.235 1.06 1.06 0 0 0 .868-.262 1.082 1.082 0 0 0 .04-.037Z" fill="#ff4b26" fill-rule="evenodd" data-name="Path 1413"/><path d="m71.19 906.81 3.03-3.03a1.063 1.063 0 0 0 .282-.5 1.084 1.084 0 0 0-.267-1.003 1.105 1.105 0 0 0-.077-.074 16.369 16.369 0 0 0-10.15-4.016 16.489 16.489 0 0 0-.596-.01v6.421a9.93 9.93 0 0 1 5.143 1.429 10.04 10.04 0 0 1 1.2.848c.425.351 1.044.326 1.434-.064Z" fill="#d93f21" fill-rule="evenodd" data-name="Path 1414"/></g></svg>