<?xml version="1.0" encoding="UTF-8"?>
<svg id="uuid-15cadb99-c0c3-40d8-900c-0b60d2a38249" data-name="Layer 2" xmlns="http://www.w3.org/2000/svg" viewBox="0 0 214.38 18.75">
  <defs>
    <style>
      .uuid-56c24ecd-6279-4d45-8d57-6f5e0b5ba63f {
        fill: #fff;
      }

      .uuid-3af1c0d5-aaeb-45a6-bd7a-967ad35b1d93 {
        fill: #628dc4;
      }
    </style>
  </defs>
  <g id="uuid-6fb3276a-b5fe-493d-b049-b6dfe2cb3493" data-name="Layer 2">
    <g>
      <g>
        <path class="uuid-56c24ecd-6279-4d45-8d57-6f5e0b5ba63f" d="m83.32,8.41l-1.9-.94c-.27-.14-.6-.03-.75.25-.15.28-.03.6.25.75l1.9.95s.03.01.03.04-.02.04-.03.04l-4.7,2.35s-.03.01-.05,0c-.02-.01-.02-.04-.02-.04v-4.7s0-.03.02-.04c.02-.01.04,0,.05,0l.77.39c.27.14.6.03.75-.25.14-.27.03-.6-.25-.75l-.77-.39c-.36-.18-.78-.16-1.13.05-.35.21-.55.58-.55.99v4.7c0,.41.21.77.55.99.18.12.4.18.61.18.18,0,.35-.04.52-.13l4.7-2.35c.4-.2.64-.6.64-1.04s-.24-.85-.64-1.05Z"/>
        <path class="uuid-56c24ecd-6279-4d45-8d57-6f5e0b5ba63f" d="m66.94.79h.02c-.27-.14-.6-.02-.75.25-1.31,2.63-1.98,5.47-1.98,8.42s.66,5.78,1.98,8.43c.1.19.3.31.49.31.08,0,.17-.02.24-.06.27-.14.38-.47.25-.75-1.24-2.49-1.87-5.15-1.87-7.93s.63-5.44,1.87-7.93c.13-.27.02-.6-.25-.74Z"/>
        <path class="uuid-56c24ecd-6279-4d45-8d57-6f5e0b5ba63f" d="m68.88,9.45c0-2.04.43-4.02,1.28-5.88.13-.27,0-.6-.27-.73-.28-.13-.6,0-.73.27-.91,2.01-1.37,4.14-1.37,6.34s.46,4.34,1.37,6.34c.1.21.3.32.5.32.07,0,.15-.01.23-.05.28-.13.4-.46.27-.73-.85-1.86-1.28-3.84-1.28-5.88Z"/>
        <path class="uuid-56c24ecd-6279-4d45-8d57-6f5e0b5ba63f" d="m72.84,4.9h0c-.29-.1-.6.04-.72.33-.52,1.36-.79,2.79-.79,4.22s.27,2.86.79,4.22c.08.22.3.35.52.35.07,0,.13-.01.2-.04.29-.11.43-.43.32-.72-.48-1.24-.72-2.53-.72-3.83s.24-2.59.72-3.83c.11-.27-.03-.59-.32-.7Z"/>
        <path class="uuid-56c24ecd-6279-4d45-8d57-6f5e0b5ba63f" d="m93.97,1.03c-.14-.27-.47-.38-.75-.25-.28.13-.38.47-.25.75,1.24,2.48,1.87,5.15,1.87,7.93s-.63,5.44-1.87,7.93c-.14.27-.02.6.25.75.08.04.16.06.24.06.21,0,.4-.11.49-.31,1.31-2.63,1.98-5.47,1.98-8.43s-.66-5.78-1.98-8.43h.02Z"/>
        <path class="uuid-56c24ecd-6279-4d45-8d57-6f5e0b5ba63f" d="m90.29,2.84c-.28.13-.4.46-.27.73.85,1.86,1.28,3.84,1.28,5.88s-.43,4.02-1.28,5.88c-.13.28,0,.6.27.73.07.04.15.05.23.05.21,0,.41-.12.5-.32.91-2.01,1.37-4.14,1.37-6.34s-.46-4.34-1.37-6.34c-.13-.27-.45-.4-.73-.27Z"/>
        <path class="uuid-56c24ecd-6279-4d45-8d57-6f5e0b5ba63f" d="m87.34,4.93v-.02c-.29.11-.43.43-.32.72.48,1.24.72,2.53.72,3.83s-.24,2.59-.72,3.83c-.11.29.03.6.32.72.07.02.13.04.2.04.22,0,.44-.13.52-.35.52-1.36.79-2.79.79-4.22s-.27-2.86-.79-4.22c-.11-.3-.43-.44-.72-.33Z"/>
        <path class="uuid-56c24ecd-6279-4d45-8d57-6f5e0b5ba63f" d="m5.44,2.56L0,18.49h2.13l1.65-5.01h5.65l1.7,5.01h2.2L7.89,2.56h-2.46Zm-1.23,9.31l1.56-4.61c.33-.97.57-1.96.8-2.88h.05c.24.92.47,1.87.83,2.91l1.58,4.58h-4.82Z"/>
        <path class="uuid-56c24ecd-6279-4d45-8d57-6f5e0b5ba63f" d="m27.01,12.01c0,3.5-1.54,5.06-3.88,5.06-2.13,0-3.71-1.51-3.71-5.06V2.56h-2.08v9.38c0,4.96,2.46,6.81,5.72,6.81,3.45,0,6.03-1.99,6.03-6.88V2.56h-2.08v9.45Z"/>
        <path class="uuid-56c24ecd-6279-4d45-8d57-6f5e0b5ba63f" d="m39.39,2.44c-1.63,0-3.12.14-4.37.35v15.65c1.04.12,2.25.19,3.73.19,3.1,0,5.55-.8,7.07-2.29,1.47-1.47,2.29-3.59,2.29-6.19s-.83-4.42-2.27-5.72c-1.39-1.28-3.5-1.99-6.45-1.99Zm-.24,14.54c-.8,0-1.56-.02-2.08-.09V4.29c.54-.12,1.35-.21,2.41-.21,4.35,0,6.48,2.39,6.45,6.15,0,4.3-2.36,6.76-6.78,6.76Z"/>
        <rect class="uuid-56c24ecd-6279-4d45-8d57-6f5e0b5ba63f" x="53.09" y="2.56" width="2.08" height="15.93"/>
        <path class="uuid-56c24ecd-6279-4d45-8d57-6f5e0b5ba63f" d="m116.34,8.34c0,2.48.05,4.42.24,6.55l-.07.02c-.73-1.63-1.68-3.31-2.84-5.18l-5.08-8.06h-2.27v15.93h1.94v-6.81c0-2.65-.02-4.56-.14-6.57l.07-.02c.78,1.73,1.84,3.54,2.96,5.32l5.06,8.08h2.08V1.68h-1.94v6.67Z"/>
        <polygon class="uuid-56c24ecd-6279-4d45-8d57-6f5e0b5ba63f" points="126.28 15.88 126.28 10.14 132.45 10.14 132.45 8.44 126.28 8.44 126.28 3.41 132.83 3.41 132.83 1.68 124.2 1.68 124.2 17.61 133.18 17.61 133.18 15.88 126.28 15.88"/>
      </g>
      <g>
        <path class="uuid-56c24ecd-6279-4d45-8d57-6f5e0b5ba63f" d="m198,2.82c.27-.12.49-.28.65-.5s.24-.46.24-.74c0-.52-.16-.92-.49-1.18-.33-.27-.81-.4-1.46-.4h-1.95v5.95h2.06c.63,0,1.12-.15,1.47-.46.35-.3.52-.72.52-1.26,0-.35-.09-.65-.28-.9-.19-.25-.44-.42-.76-.51Zm-2.22-2.18h1.16c.39,0,.68.07.87.22.19.15.29.39.29.71,0,.29-.1.53-.31.7-.21.17-.48.26-.82.26h-1.19V.64Zm2.16,4.38c-.21.19-.5.28-.86.28h-1.3v-2.14h1.31c.78,0,1.17.36,1.17,1.08,0,.33-.11.59-.32.78Z"/>
        <polygon class="uuid-56c24ecd-6279-4d45-8d57-6f5e0b5ba63f" points="200.98 3.2 203.56 3.2 203.56 2.56 200.98 2.56 200.98 .64 203.94 .64 203.94 0 200.2 0 200.2 5.95 203.98 5.95 203.98 5.31 200.98 5.31 200.98 3.2"/>
        <polygon class="uuid-56c24ecd-6279-4d45-8d57-6f5e0b5ba63f" points="209.15 0 204.55 0 204.55 .64 206.46 .64 206.46 5.95 207.24 5.95 207.24 .64 209.15 .64 209.15 0"/>
        <path class="uuid-56c24ecd-6279-4d45-8d57-6f5e0b5ba63f" d="m212.1,0h-.69l-2.27,5.95h.81l.56-1.56h2.49l.57,1.56h.81l-2.28-5.95Zm-1.35,3.75l1.01-2.78,1.01,2.78h-2.02Z"/>
      </g>
      <g>
        <polygon class="uuid-3af1c0d5-aaeb-45a6-bd7a-967ad35b1d93" points="148.97 17.61 152.43 17.61 152.43 10.75 159.08 10.75 159.08 7.95 152.43 7.95 152.43 3.61 159.91 3.61 159.91 .81 148.97 .81 148.97 17.61"/>
        <polygon class="uuid-3af1c0d5-aaeb-45a6-bd7a-967ad35b1d93" points="170.07 8.38 166.6 .81 162.8 .81 168.32 11.52 168.32 17.61 171.83 17.61 171.83 11.52 177.35 .81 173.57 .81 170.07 8.38"/>
        <rect class="uuid-3af1c0d5-aaeb-45a6-bd7a-967ad35b1d93" x="181.47" y=".81" width="3.46" height="16.8"/>
      </g>
    </g>
  </g>
</svg>