<svg xmlns="http://www.w3.org/2000/svg" width="22" height="19" viewBox="0 0 22 19"><g><g><g><g><path fill="#fff" d="M20.083 12.79H1.25V6.466h18.833zm-5.336 3.382a7.667 7.667 0 0 1-2.519 1.008 11.943 11.943 0 0 0 1.81-3.14h2.954a7.746 7.746 0 0 1-2.245 2.132zm-4.08.901a10.749 10.749 0 0 1-2.02-3.033h4.039a10.748 10.748 0 0 1-2.02 3.033zM7.293 14.04a11.944 11.944 0 0 0 1.81 3.14 7.668 7.668 0 0 1-2.518-1.007A7.747 7.747 0 0 1 4.34 14.04zM6.586 3.084a7.667 7.667 0 0 1 2.519-1.008 11.943 11.943 0 0 0-1.81 3.14H4.34a7.746 7.746 0 0 1 2.245-2.132zm4.08-.9c.849.9 1.525 1.916 2.02 3.032H8.647a10.748 10.748 0 0 1 2.02-3.033zm6.326 3.032zm-2.953 0a11.943 11.943 0 0 0-1.81-3.14c.89.183 1.742.523 2.519 1.008a7.748 7.748 0 0 1 2.244 2.132zm7.294 0h-2.866a8.993 8.993 0 0 0-3.057-3.192A8.939 8.939 0 0 0 10.666.667c-1.682 0-3.323.469-4.743 1.357a8.993 8.993 0 0 0-3.057 3.192H0v8.824h2.866a8.993 8.993 0 0 0 3.057 3.192 8.939 8.939 0 0 0 4.743 1.358c1.683 0 3.324-.47 4.744-1.358a8.993 8.993 0 0 0 3.057-3.192h2.866z"/></g></g><g><g><path fill="#fff" d="M4.726 14.483l1.481 2.357h.805v-4.044h-.853v2.364l-1.482-2.358h-.804v4.088h.853z"/></g></g><g><g><path fill="#fff" d="M9.727 16.022H8.374v-.752h1.253v-.853H8.374v-.753h1.353v-.853H7.521v4.064h2.206z"/></g></g><g><g><path fill="#fff" d="M16.059 16.037c-.317 0-.62-.127-.814-.34l-.632.573c.357.394.884.62 1.446.62.693 0 1.276-.443 1.385-1.054.082-.46-.126-1.061-.956-1.368a17.162 17.162 0 0 1-.879-.355.204.204 0 0 1-.07-.19c.008-.052.047-.182.243-.241.45-.136.869.199.873.202l-.003-.002.55-.653c-.032-.026-.77-.634-1.666-.364-.455.137-.778.496-.84.938-.06.414.12.813.468 1.04l.028.019.031.014c.02.008.466.207.97.393.106.04.452.186.41.417-.03.173-.242.351-.544.351z"/></g></g><g><g><path fill="#fff" d="M11.61 16.863l.664-2.297.664 2.302.809-.005.785-3.945-.837-.167-.432 2.168-.597-2.07-.783-.001-.6 2.07-.429-2.173-.837.166.783 3.957z"/></g></g></g></g></svg>