<svg xmlns="http://www.w3.org/2000/svg" width="47" height="47" viewBox="0 0 47 47"><g><g><g><path fill="#fff" d="M17.407 16.038v14.734c0 1.709 1.71 2.776 3.204 1.922l12.816-7.474c1.495-.854 1.495-2.776 0-3.63L20.61 14.116c-1.495-.641-3.204.427-3.204 1.922z"/></g><g><path fill="#fff" d="M38.788 8.212A21.479 21.479 0 0 1 45.12 23.5a21.478 21.478 0 0 1-6.332 15.288A21.479 21.479 0 0 1 23.5 45.12a21.478 21.478 0 0 1-15.288-6.332A21.479 21.479 0 0 1 1.88 23.5 21.478 21.478 0 0 1 8.212 8.212 21.479 21.479 0 0 1 23.5 1.88a21.478 21.478 0 0 1 15.288 6.332zm1.33 31.905A23.346 23.346 0 0 0 47 23.5a23.346 23.346 0 0 0-6.883-16.617A23.346 23.346 0 0 0 23.5 0 23.346 23.346 0 0 0 6.883 6.883 23.346 23.346 0 0 0 0 23.5a23.346 23.346 0 0 0 6.883 16.617A23.346 23.346 0 0 0 23.5 47a23.346 23.346 0 0 0 16.617-6.883z"/></g></g></g></svg>