<svg xmlns="http://www.w3.org/2000/svg" width="32.824" height="32.824" viewBox="47 203.588 32.824 32.824"><g data-name="podcast"><path d="M79.824 220c0 9.064-7.348 16.412-16.412 16.412S47 229.064 47 220s7.348-16.412 16.412-16.412S79.824 210.936 79.824 220Z" fill="#382b73" fill-rule="evenodd" data-name="Path 1415"/><path d="M63.412 234.199a14.199 14.199 0 0 0 14.198-14.2 14.199 14.199 0 0 0-14.198-14.198A14.199 14.199 0 0 0 49.213 220a14.199 14.199 0 0 0 14.199 14.199Z" fill="#473080" fill-rule="evenodd" data-name="Path 1416"/><g data-name="Group 982"><path d="M66.91 213.694a.3.3 0 0 1 0 .002 3.606 3.606 0 0 1 .096.817v3.136h.91v-.883a.517.517 0 0 1 .518-.517.517.517 0 0 1 .517.517v3.686a5.546 5.546 0 0 1-5.022 5.514v3.18h2.954a.736.736 0 0 1 .732.67.943.943 0 0 0 .001.013.382.382 0 0 1 .005.055v.541a.29.29 0 0 1-.006.06.296.296 0 0 1-.124.185.294.294 0 0 1-.165.051h-7.829a.296.296 0 0 1-.295-.296v-.541a.134.134 0 0 1 .002-.019v-.01a.737.737 0 0 1 .737-.71h2.954v-3.179a5.546 5.546 0 0 1-5.022-5.514v-3.686a.517.517 0 0 1 1.034 0v.883h.91V214.512a3.586 3.586 0 0 1 .097-.816.142.142 0 0 1 0-.004.135.135 0 0 0 .002-.005 3.536 3.536 0 0 1 .137-.444 9.039 9.039 0 0 1 .009-.023 8.322 8.322 0 0 0 .01-.025 3.482 3.482 0 0 1 .081-.19l.006-.012a3.604 3.604 0 0 1 .59-.884 3.584 3.584 0 0 1 2.663-1.18 3.663 3.663 0 0 1 .07 0 3.594 3.594 0 0 1 3.183 2.065.141.141 0 0 0 .001.003.03.03 0 0 0 .002.003 3.34 3.34 0 0 1 .085.198 3.246 3.246 0 0 1 0 .003l.016.038a.984.984 0 0 1 0 .001 3.633 3.633 0 0 1 .139.45.081.081 0 0 0 0 .001Zm-8.003 6.758v-1.77h.91v1.65a3.584 3.584 0 0 0 .242 1.298 3.562 3.562 0 0 0 .041.101 3.595 3.595 0 0 0 3.277 2.195 3.664 3.664 0 0 0 .035 0c.062 0 .124-.001.185-.004a3.585 3.585 0 0 0 .713-.109c.058-.014.114-.03.17-.048a3.637 3.637 0 0 0 .33-.121 3.601 3.601 0 0 0 1.262-.895 3.596 3.596 0 0 0 .22-.266c.035-.046.068-.093.1-.141A3.573 3.573 0 0 0 67 220.54a3.65 3.65 0 0 0 .006-.207v-1.65h.91v1.77a4.51 4.51 0 0 1-4.504 4.505 4.51 4.51 0 0 1-4.505-4.506Zm8.71 9.38v-.003m-.708-16.135v-.003" fill="#382b73" fill-rule="evenodd" data-name="Path 1417"/><path d="M55.691 218.19v5.27a.684.684 0 0 0 .077.314.687.687 0 0 0 .041.07.686.686 0 0 0 .531.301.697.697 0 0 0 .039.001.687.687 0 0 0 .687-.687v-5.269a.687.687 0 0 0-.687-.687.688.688 0 0 0-.688.687Z" fill="#382b73" fill-rule="evenodd" data-name="Path 1418"/><path d="M53.217 220.618v5.27a.684.684 0 0 0 .047.247.69.69 0 0 0 .008.02c.025.06.06.113.1.163a.702.702 0 0 0 .093.093c.04.034.084.063.131.087a.682.682 0 0 0 .293.076.641.641 0 0 0 .016 0 .685.685 0 0 0 .244-.044.68.68 0 0 0 .023-.01.69.69 0 0 0 .366-.365.683.683 0 0 0 .054-.254.708.708 0 0 0 0-.014v-5.269a.687.687 0 1 0-1.375 0Z" fill="#382b73" fill-rule="evenodd" data-name="Path 1419"/><path d="M50.743 218.19v5.27a.684.684 0 0 0 .076.314.687.687 0 0 0 .042.07.686.686 0 0 0 .53.301.697.697 0 0 0 .04.001.687.687 0 0 0 .687-.687v-5.269a.687.687 0 0 0-.688-.687.687.687 0 0 0-.687.687Z" fill="#382b73" fill-rule="evenodd" data-name="Path 1420"/><path d="M69.757 218.19v5.27c0 .379.308.686.688.686a.685.685 0 0 0 .32-.079.688.688 0 0 0 .064-.038.691.691 0 0 0 .186-.186.683.683 0 0 0 .116-.343.698.698 0 0 0 .001-.04v-5.27a.687.687 0 0 0-1.375 0Z" fill="#382b73" fill-rule="evenodd" data-name="Path 1421"/><path d="M72.232 220.618v5.269a.686.686 0 0 0 .244.526.689.689 0 0 0 .176.108.681.681 0 0 0 .25.053.705.705 0 0 0 .017 0 .67.67 0 0 0 .272-.058.76.76 0 0 0 .037-.018.688.688 0 0 0 .324-.343.684.684 0 0 0 .054-.268v-5.269a.687.687 0 0 0-.687-.687.687.687 0 0 0-.687.687Z" fill="#382b73" fill-rule="evenodd" data-name="Path 1422"/><path d="M74.706 218.19v5.27c0 .379.308.686.687.686a.685.685 0 0 0 .32-.078.687.687 0 0 0 .064-.039.686.686 0 0 0 .302-.531.7.7 0 0 0 .001-.039v-5.269a.687.687 0 0 0-1.374 0Z" fill="#382b73" fill-rule="evenodd" data-name="Path 1423"/></g><path d="M58.39 216.824h10.044v1.034H58.39v-1.034Z" fill="#1caee4" fill-rule="evenodd" data-name="Path 1424"/><path d="M58.39 217.446h10.044v.412H58.39v-.412Z" fill="#136da0" fill-rule="evenodd" data-name="Path 1425"/><path d="M59.818 219.508v-5.81a3.594 3.594 0 1 1 7.188 0v5.81a3.594 3.594 0 0 1-7.188 0Z" fill="#e6e7e8" fill-rule="evenodd" data-name="Path 1426"/><path d="M60.869 220.559v-7.913a2.543 2.543 0 0 1 2.543-2.543 2.543 2.543 0 0 1 2.543 2.543v7.913a2.543 2.543 0 0 1-2.543 2.543 2.543 2.543 0 0 1-2.543-2.543Z" fill="#fff" fill-rule="evenodd" data-name="Path 1427"/><path d="M62.895 224.65h1.034v4.114h-1.034v-4.114Z" fill="#1caee4" fill-rule="evenodd" data-name="Path 1428"/><path d="M67.326 229.897h-7.829a.295.295 0 0 1-.295-.296v-.542a.739.739 0 0 1 .739-.738h6.942a.738.738 0 0 1 .738.738v.542a.295.295 0 0 1-.295.296Z" fill="#1caee4" fill-rule="evenodd" data-name="Path 1429"/><path d="M67.326 229.21h-7.829a.296.296 0 0 1-.287-.23c-.003.026-.008.052-.008.08v.54a.295.295 0 0 0 .295.296h7.829a.295.295 0 0 0 .296-.295v-.542a.39.39 0 0 0-.005-.053.771.771 0 0 1-.003-.026.295.295 0 0 1-.288.23Z" fill="#136da0" fill-rule="evenodd" data-name="Path 1430"/><path d="M57.873 219.628v-3.687a.517.517 0 0 1 1.034 0v3.687a4.51 4.51 0 0 0 4.505 4.505 4.51 4.51 0 0 0 4.505-4.505v-3.687c0-.286.231-.517.517-.517a.517.517 0 0 1 .517.517v3.687a5.545 5.545 0 0 1-5.54 5.539 5.545 5.545 0 0 1-5.538-5.54Z" fill="#fff" fill-rule="evenodd" data-name="Path 1431"/><path d="M67.917 215.94v3.688a4.51 4.51 0 0 1-4.505 4.505 4.51 4.51 0 0 1-4.505-4.505v-3.687a.517.517 0 0 0-.518-.517v4.204a5.022 5.022 0 0 0 10.045 0v-4.204a.517.517 0 0 0-.517.517Z" fill="#d1d3d4" fill-rule="evenodd" data-name="Path 1432"/><path d="M62.895 227.617h1.034v.704h-1.034v-.704Z" fill="#009add" fill-rule="evenodd" data-name="Path 1433"/><path d="M62.469 216.342h-2.652v-.918h2.652a.46.46 0 0 1 .46.459.455.455 0 0 1-.06.227.464.464 0 0 1-.076.098.452.452 0 0 1-.289.133.47.47 0 0 1-.035.001Z" fill="#d1d3d4" fill-rule="evenodd" data-name="Path 1434"/><path d="M62.469 215.424h-2.652v.413h2.652a.453.453 0 0 1 .343.155.468.468 0 0 1 .065.097.457.457 0 0 0 .05-.185.428.428 0 0 0 .001-.02.46.46 0 0 0-.46-.46Z" fill="#bcbec0" fill-rule="evenodd" data-name="Path 1435"/><path d="M62.469 214.608h-2.652v-.92h2.652a.46.46 0 0 1 .46.46.457.457 0 0 1-.086.266.481.481 0 0 1-.05.059.452.452 0 0 1-.289.133.47.47 0 0 1-.035.002Z" fill="#d1d3d4" fill-rule="evenodd" data-name="Path 1436"/><path d="M62.469 213.688h-2.652v.412h2.652c.178 0 .332.104.408.254a.456.456 0 0 0 .051-.199.416.416 0 0 0 0-.006.46.46 0 0 0-.46-.46Z" fill="#bcbec0" fill-rule="evenodd" data-name="Path 1437"/><path d="M62.469 212.871h-2.555a3.505 3.505 0 0 1 .356-.918h2.199a.46.46 0 0 1 .46.46.46.46 0 0 1-.136.324.452.452 0 0 1-.289.133.47.47 0 0 1-.035.001Z" fill="#d1d3d4" fill-rule="evenodd" data-name="Path 1438"/><path d="M62.469 211.953h-2.2a3.536 3.536 0 0 0-.195.413h2.395c.179 0 .332.103.408.252a.458.458 0 0 0 .05-.195.418.418 0 0 0 .001-.01.46.46 0 0 0-.46-.46Z" fill="#bcbec0" fill-rule="evenodd" data-name="Path 1439"/><path d="M64.355 216.342h2.651v-.918h-2.651a.459.459 0 0 0-.46.459.456.456 0 0 0 .059.224.462.462 0 0 0 .076.1.453.453 0 0 0 .29.134.47.47 0 0 0 .035.001Z" fill="#d1d3d4" fill-rule="evenodd" data-name="Path 1440"/><path d="M64.355 215.836h2.651v-.412h-2.651a.459.459 0 0 0-.46.46.444.444 0 0 0 .032.162.505.505 0 0 0 .02.043.458.458 0 0 1 .402-.253.468.468 0 0 1 .006 0Z" fill="#bcbec0" fill-rule="evenodd" data-name="Path 1441"/><path d="M64.355 214.608h2.651v-.92h-2.651a.46.46 0 0 0-.46.46.457.457 0 0 0 .086.266.48.48 0 0 0 .05.059.452.452 0 0 0 .293.134.47.47 0 0 0 .03 0Z" fill="#d1d3d4" fill-rule="evenodd" data-name="Path 1442"/><path d="M64.355 214.1h2.651v-.412h-2.651a.46.46 0 0 0-.46.46.448.448 0 0 0 .048.197.525.525 0 0 0 .004.009.457.457 0 0 1 .408-.254Z" fill="#bcbec0" fill-rule="evenodd" data-name="Path 1443"/><path d="M64.355 212.871h2.555a3.495 3.495 0 0 0-.356-.918h-2.2a.46.46 0 0 0-.458.46.46.46 0 0 0 .081.26.458.458 0 0 0 .053.064.453.453 0 0 0 .29.133.47.47 0 0 0 .035.001Z" fill="#d1d3d4" fill-rule="evenodd" data-name="Path 1444"/><path d="M64.355 212.366h2.395a3.539 3.539 0 0 0-.196-.413h-2.2a.459.459 0 0 0-.458.46.45.45 0 0 0 .041.186.523.523 0 0 0 .01.02.458.458 0 0 1 .406-.253.455.455 0 0 1 .002 0Z" fill="#bcbec0" fill-rule="evenodd" data-name="Path 1445"/><path d="M59.818 217.446v2.062a3.594 3.594 0 0 0 3.594 3.594 3.594 3.594 0 0 0 3.594-3.594v-2.062h-7.188Z" fill="#d1d3d4" fill-rule="evenodd" data-name="Path 1446"/><path d="M59.818 218.683v.825a3.594 3.594 0 0 0 3.594 3.594 3.594 3.594 0 0 0 3.594-3.594v-.825a3.594 3.594 0 0 1-3.594 3.594 3.594 3.594 0 0 1-3.594-3.594Z" fill="#bcbec0" fill-rule="evenodd" data-name="Path 1447"/><path d="M59.818 217.446h7.188v.51h-7.188v-.51Z" fill="#bcbec0" fill-rule="evenodd" data-name="Path 1448"/><path d="M55.691 222.634v-5.268c0-.38.308-.688.688-.688a.687.687 0 0 1 .687.688v5.268a.687.687 0 0 1-.687.688.687.687 0 0 1-.688-.688Z" fill="#fede3a" fill-rule="evenodd" data-name="Path 1449"/><path d="M55.691 221.26v1.374c0 .38.308.688.688.688a.687.687 0 0 0 .687-.688v-1.374c0 .38-.308.687-.687.687a.687.687 0 0 1-.688-.687Z" fill="#e7ad27" fill-rule="evenodd" data-name="Path 1450"/><path d="M53.217 225.063v-5.27a.687.687 0 0 1 1.375 0v5.27a.687.687 0 1 1-1.375 0Z" fill="#ef5a9d" fill-rule="evenodd" data-name="Path 1451"/><path d="M50.743 222.634v-5.268c0-.38.308-.688.687-.688a.687.687 0 0 1 .688.688v5.268a.687.687 0 0 1-.688.688.687.687 0 0 1-.687-.688Z" fill="#1caee4" fill-rule="evenodd" data-name="Path 1452"/><path d="M53.217 223.688v1.375a.687.687 0 0 0 .688.687.687.687 0 0 0 .687-.687v-1.375a.687.687 0 1 1-1.375 0Z" fill="#a72973" fill-rule="evenodd" data-name="Path 1453"/><path d="M50.743 221.26v1.374c0 .38.308.688.687.688a.687.687 0 0 0 .688-.688v-1.374c0 .38-.308.687-.688.687a.687.687 0 0 1-.687-.687Z" fill="#136da0" fill-rule="evenodd" data-name="Path 1454"/><path d="M71.132 222.634v-5.268a.687.687 0 1 0-1.375 0v5.268a.687.687 0 1 0 1.375 0Z" fill="#fede3a" fill-rule="evenodd" data-name="Path 1455"/><path d="M71.132 221.26v1.374a.687.687 0 1 1-1.375 0v-1.374a.687.687 0 0 0 .688.687.687.687 0 0 0 .687-.687Z" fill="#e7ad27" fill-rule="evenodd" data-name="Path 1456"/><path d="M73.606 225.063v-5.27a.687.687 0 1 0-1.374 0v5.27a.687.687 0 1 0 1.374 0Z" fill="#ef5a9d" fill-rule="evenodd" data-name="Path 1457"/><path d="M76.08 222.634v-5.268a.687.687 0 1 0-1.374 0v5.268a.687.687 0 1 0 1.374 0Z" fill="#1caee4" fill-rule="evenodd" data-name="Path 1458"/><path d="M73.606 223.688v1.375a.687.687 0 0 1-.687.687.687.687 0 0 1-.687-.687v-1.375a.687.687 0 1 0 1.374 0Z" fill="#a72973" fill-rule="evenodd" data-name="Path 1459"/><path d="M76.08 221.26v1.374a.687.687 0 1 1-1.374 0v-1.374a.687.687 0 0 0 .687.687.687.687 0 0 0 .687-.687Z" fill="#136da0" fill-rule="evenodd" data-name="Path 1460"/></g></svg>