<svg xmlns="http://www.w3.org/2000/svg" width="32.824" height="32.824" viewBox="47 423.176 32.824 32.824"><g data-name="chapter"><path d="M77.466 446.255h-22.32a3.66 3.66 0 0 0-3.658 3.66.363.363 0 0 1-.64.232 16.339 16.339 0 0 1-3.81-9.42 16.651 16.651 0 0 1-.038-1.12 16.98 16.98 0 0 1 0-.019 16.374 16.374 0 0 1 16.19-16.41 16.8 16.8 0 0 1 .222-.002 16.412 16.412 0 0 1 16.412 16.412 16.384 16.384 0 0 1-.944 5.5 16.29 16.29 0 0 1-.093.252 1.41 1.41 0 0 1-1.321.915Z" fill="#2dd2e3" fill-rule="evenodd" data-name="Path 1461"/><path d="M56.584 436.874v10.899H54.09v4.598a.37.37 0 0 1-.594.296 16.51 16.51 0 0 1-2.686-2.565v-2.33h-1.2a1.279 1.279 0 0 1-.449-.08 1.273 1.273 0 0 1-.03-.012 16.348 16.348 0 0 1-.803-1.616v-7.822h-.045a1.279 1.279 0 0 1-.941-.412 1.285 1.285 0 0 1-.212-.31 16.379 16.379 0 0 1 5.355-10.177h.763c.708 0 1.282.574 1.282 1.283v8.248h2.055Z" fill="#00bfd8" fill-rule="evenodd" data-name="Path 1462"/><path d="M73.286 427.392v8.335a1.282 1.282 0 0 1-1.282 1.282h-23.72A1.282 1.282 0 0 1 47 435.727v-8.335c0-.708.574-1.282 1.282-1.282h23.72c.709 0 1.283.574 1.283 1.282Z" fill="#ff5757" fill-rule="evenodd" data-name="Path 1463"/><path d="M50.207 437.009h-1.924a1.282 1.282 0 0 1-1.282-1.282v-8.335a1.282 1.282 0 0 1 1.282-1.282h1.924a1.282 1.282 0 0 0-1.282 1.282v8.335a1.282 1.282 0 0 0 1.282 1.282Z" fill="#ff4343" fill-rule="evenodd" data-name="Path 1464"/><path d="M71.299 435.727H54.63a.641.641 0 0 1-.64-.641v-7.052c0-.355.286-.642.64-.642H71.3a.641.641 0 0 1 .64.642v7.052a.641.641 0 0 1-.64.64Z" fill="#ff7a7a" fill-rule="evenodd" data-name="Path 1465"/><path d="M70.016 430.812h-7.212a.48.48 0 0 0-.48.48c0 .266.215.481.48.481h7.212a.48.48 0 0 0 .481-.48.48.48 0 0 0-.48-.481Zm-7.212-2.137h7.212a.48.48 0 0 1 .481.48.48.48 0 0 1-.48.481h-7.213a.48.48 0 0 1-.48-.48.48.48 0 0 1 .48-.481Zm5.063 4.274h-5.063a.48.48 0 0 0-.48.48.48.48 0 0 0 .48.481h5.063a.48.48 0 0 0 .481-.48.48.48 0 0 0-.48-.481Z" fill="#ff9a9a" fill-rule="evenodd" data-name="Path 1466"/><path d="M75.32 446.704H51.472a1.282 1.282 0 0 1-1.283-1.282v-8.334a1.282 1.282 0 0 1 1.283-1.282H75.32a1.282 1.282 0 0 1 1.282 1.282v8.334a1.282 1.282 0 0 1-1.282 1.282Z" fill="#4bcd5c" fill-rule="evenodd" data-name="Path 1467"/><path d="M53.395 446.704h-1.923a1.282 1.282 0 0 1-1.283-1.282v-8.334a1.282 1.282 0 0 1 1.283-1.282h1.923a1.282 1.282 0 0 0-1.282 1.282v8.334a1.282 1.282 0 0 0 1.282 1.282Z" fill="#00c53b" fill-rule="evenodd" data-name="Path 1468"/><path d="M74.615 445.422H57.947a.641.641 0 0 1-.642-.641v-7.052a.641.641 0 0 1 .642-.641h16.668c.354 0 .641.287.641.641v7.052a.641.641 0 0 1-.641.641Z" fill="#74d579" fill-rule="evenodd" data-name="Path 1469"/><path d="M73.333 438.37H66.12a.48.48 0 0 0-.48.48c0 .266.215.482.48.482h7.213a.48.48 0 0 0 .48-.481.48.48 0 0 0-.48-.48Zm0 2.137H66.12a.48.48 0 0 0-.48.48.48.48 0 0 0 .48.482h7.213a.48.48 0 0 0 .48-.481.48.48 0 0 0-.48-.481Zm-2.15 2.137H66.12a.48.48 0 0 0-.48.48.48.48 0 0 0 .48.482h5.064a.48.48 0 0 0 .48-.481.48.48 0 0 0-.48-.481Z" fill="#afe6af" fill-rule="evenodd" data-name="Path 1470"/><path d="M53.475 452.65v-6.266c0-.708.574-1.282 1.282-1.282h23.785c.11 0 .216.013.318.04-.173.482-.369.955-.585 1.415a.252.252 0 0 1-.099.102c-.192.122-.565.148-.656.321a16.483 16.483 0 0 1-7.356 7.141c-.267.13-.107.48-.382.597a16.343 16.343 0 0 1-5.948 1.277 16.724 16.724 0 0 1-.422.005 16.34 16.34 0 0 1-9.937-3.35Z" fill="#0571b5" fill-rule="evenodd" data-name="Path 1471"/><path d="M69.782 454.718h-8.614a.641.641 0 0 1-.641-.641v-7.052c0-.354.287-.641.641-.641h16.668c.17 0 .324.066.439.173a16.417 16.417 0 0 1-2.015 3.244c-.045.056-.287.066-.333.122-.162.198-.328.392-.498.582a.068.068 0 0 0-.013.02c-.03.071.076.174.016.237-.384.413-.789.806-1.213 1.178a.07.07 0 0 1-.025.013c-.065.02-.2.002-.241.037a16.457 16.457 0 0 1-.89.71.066.066 0 0 0-.026.048c-.005.037.006.084-.003.119a.06.06 0 0 1-.023.034 16.388 16.388 0 0 1-3.229 1.817Z" fill="#3081c4" fill-rule="evenodd" data-name="Path 1472"/><path d="M69.342 447.666h7.212a.48.48 0 0 1 .481.48.48.48 0 0 1-.48.481h-7.213a.48.48 0 0 1-.48-.48.48.48 0 0 1 .48-.481Zm6.916 2.137h-6.916a.48.48 0 1 0 0 .961h6.088c.288-.31.565-.63.828-.961Zm-6.916 3.098h3.67c.417-.301.82-.622 1.207-.961h-4.877a.48.48 0 0 0-.48.48c0 .266.214.481.48.481Z" fill="#75a7d5" fill-rule="evenodd" data-name="Path 1473"/><path d="M54.757 445.102h1.923a1.282 1.282 0 0 0-1.282 1.282v7.53a16.438 16.438 0 0 1-1.923-1.263v-6.267a1.282 1.282 0 0 1 1.282-1.282Z" fill="#05609b" fill-rule="evenodd" data-name="Path 1474"/><path d="M58.61 450.865a1.792 1.792 0 0 0-1.22-3.099c-.853 0-1.591.607-1.756 1.443a.483.483 0 0 0-.009.094.481.481 0 0 0 .389.47.484.484 0 0 0 .092.01.481.481 0 0 0 .472-.388.83.83 0 0 1 .813-.667.83.83 0 0 1 .828.828.83.83 0 0 1-.828.828.48.48 0 0 0-.481.481c0 .266.215.48.48.48a.83.83 0 0 1 .829.83.83.83 0 0 1-.828.827.83.83 0 0 1-.82-.712.843.843 0 0 1-.008-.1.845.845 0 0 1 0-.016.48.48 0 0 0-.481-.48.48.48 0 0 0-.481.48 1.797 1.797 0 0 0 .001.067 1.816 1.816 0 0 0 .016.182 1.797 1.797 0 0 0 1.773 1.541 1.792 1.792 0 0 0 1.79-1.79 1.78 1.78 0 0 0-.34-1.048 1.805 1.805 0 0 0-.23-.261Zm-2.441-10.65.025-.199a.473.473 0 0 0 .004-.058.498.498 0 0 0 0-.003c0-.987-.803-1.79-1.79-1.79a1.793 1.793 0 0 0-1.756 1.444.483.483 0 0 0-.01.093.481.481 0 0 0 .389.472.483.483 0 0 0 .093.009.481.481 0 0 0 .471-.389.83.83 0 0 1 .813-.667.83.83 0 0 1 .828.801l-.018.139a2.396 2.396 0 0 1-.27.62 4.531 4.531 0 0 1-.194.301 58.15 58.15 0 0 1-1.556 2.135c-.317.415-.436.57-.352.843.049.158.168.28.33.333a.63.63 0 0 0 .016.005c.06.018.172.036.841.04a48.208 48.208 0 0 0 .255 0 78.58 78.58 0 0 0 .319 0c.239-.001.52-.003.85-.007a231.804 231.804 0 0 0 .483-.006.48.48 0 0 0 .475-.48.491.491 0 0 0 0-.006.482.482 0 0 0-.483-.475.5.5 0 0 0-.004 0c-.596.007-1.233.012-1.719.012a49.599 49.599 0 0 0 .244-.326c.271-.366.628-.858 1.089-1.516.32-.457.528-.887.618-1.278a.46.46 0 0 0 .009-.048Zm-5.25-5.783v-4.635h-.613a.48.48 0 0 1-.48-.481.48.48 0 0 1 .48-.481H51.4a.48.48 0 0 1 .48.48v5.117a.48.48 0 0 1-.48.48.48.48 0 0 1-.481-.48Zm12.627 7.008-3.936 2.306a.218.218 0 0 1-.052.022.215.215 0 0 1-.27-.178.223.223 0 0 1-.001-.03v-4.61a.212.212 0 0 1 .048-.136.215.215 0 0 1 .275-.05l3.936 2.306a.213.213 0 0 1 .076.075.215.215 0 0 1-.076.295Zm3.222 9.296-3.937 2.306a.218.218 0 0 1-.051.022.215.215 0 0 1-.27-.178.223.223 0 0 1-.002-.03v-4.611c0-.166.18-.27.323-.185l3.937 2.306a.215.215 0 0 1 0 .37Zm-6.538-19.362-3.936-2.305a.215.215 0 0 0-.324.185v4.611a.212.212 0 0 0 .048.136.215.215 0 0 0 .276.05l3.936-2.306a.213.213 0 0 0 .076-.076.216.216 0 0 0-.039-.267.22.22 0 0 0-.037-.028Z" fill="#fff" fill-rule="evenodd" data-name="Path 1475"/></g></svg>