<svg id="podcast-icon" xmlns="http://www.w3.org/2000/svg" width="23.66" height="23.66" viewBox="0 0 23.66 23.66">
  <g id="Group_876" data-name="Group 876" transform="translate(6.516 5.823)">
    <g id="Group_875" data-name="Group 875">
      <path id="Path_1280" data-name="Path 1280" d="M146.314,126a5.311,5.311,0,0,0-3.874,8.948,4.019,4.019,0,0,1,.676-1.357,3.928,3.928,0,1,1,6.4,0,4.019,4.019,0,0,1,.676,1.357A5.311,5.311,0,0,0,146.314,126Z" transform="translate(-141 -126)"/>
    </g>
  </g>
  <g id="Group_878" data-name="Group 878" transform="translate(3.743 3.05)">
    <g id="Group_877" data-name="Group 877">
      <path id="Path_1281" data-name="Path 1281" d="M89.087,66a8.086,8.086,0,0,0-3.71,15.271l-.255-1.786a6.7,6.7,0,1,1,7.931,0L92.8,81.271A8.086,8.086,0,0,0,89.087,66Z" transform="translate(-81 -66)"/>
    </g>
  </g>
  <g id="Group_880" data-name="Group 880">
    <g id="Group_879" data-name="Group 879">
      <path id="Path_1282" data-name="Path 1282" d="M18.808,0H4.852A4.858,4.858,0,0,0,0,4.852V18.808A4.858,4.858,0,0,0,4.852,23.66H18.808a4.858,4.858,0,0,0,4.852-4.852V4.852A4.858,4.858,0,0,0,18.808,0Zm3.466,18.808a3.47,3.47,0,0,1-3.466,3.466H4.852a3.47,3.47,0,0,1-3.466-3.466V4.852A3.47,3.47,0,0,1,4.852,1.386H18.808a3.47,3.47,0,0,1,3.466,3.466Z"/>
    </g>
  </g>
  <g id="Group_882" data-name="Group 882" transform="translate(9.751 8.595)">
    <g id="Group_881" data-name="Group 881">
      <path id="Path_1283" data-name="Path 1283" d="M213.079,186a2.079,2.079,0,1,0,2.079,2.079A2.082,2.082,0,0,0,213.079,186Zm0,2.773a.693.693,0,1,1,.693-.693A.694.694,0,0,1,213.079,188.773Z" transform="translate(-211 -186)"/>
    </g>
  </g>
  <g id="Group_884" data-name="Group 884" transform="translate(8.732 12.754)">
    <g id="Group_883" data-name="Group 883">
      <path id="Path_1284" data-name="Path 1284" d="M194.4,277.068a3.1,3.1,0,0,0-5.407,2.468l.362,2.534a2.09,2.09,0,0,0,2.059,1.785H192.7a2.09,2.09,0,0,0,2.059-1.785l.362-2.534A3.1,3.1,0,0,0,194.4,277.068Zm-.646,2.272-.362,2.534a.7.7,0,0,1-.686.6h-1.292a.7.7,0,0,1-.686-.6l-.362-2.534a1.712,1.712,0,1,1,3.389,0Z" transform="translate(-188.961 -276)"/>
    </g>
  </g>
</svg>
